#!OML:ASF H:\ManfredObstacles\Project 1\Capture day 2\Session 1\male.ASF
:FULLY-SPECIFIED
:DEGREES
475
root 1.66354 15.8846 -9.43919 -175.997 7.76429 181.137
lowerback -5.59189 2.67077 -0.981854
upperback 1.57097 3.67698 -0.680045
thorax 4.7431 1.80724 0.198688
lowerneck -32.959 1.06397 1.64546
upperneck 36.6942 -1.33614 0.805893
head 19.8745 -0.652933 -0.417613
rclavicle -2.73329e-014 -8.34896e-015
rhumerus -27.3008 -6.91416 -83.5573
rradius 34.8662
rwrist 26.8023
rhand 0.127168 -6.39689
rfingers 7.12502
rthumb 25.7122 -34.6801
lclavicle -2.73329e-014 -8.34896e-015
lhumerus -47.0643 41.585 48.6991
lradius 13.9002
lwrist -79.9549
lhand 3.0272 5.08512
lfingers 7.12502
lthumb 28.4865 32.936
rfemur 5.61732 3.34991 26.9248
rtibia 12.6701
rfoot -10.5889 -9.7995
rtoes -13.2765
lfemur -31.7411 -10.6827 -11.2063
ltibia 20.5576
lfoot 4.58804 25.8062
ltoes -4.76545
476
root 1.65301 15.873 -9.55358 -175.92 7.92168 181.122
lowerback -5.74468 2.68913 -1.03531
upperback 1.56016 3.71003 -0.720252
thorax 4.81755 1.82203 0.19781
lowerneck -33.4813 1.02481 1.60182
upperneck 36.8744 -1.3993 0.843168
head 20.1202 -0.668069 -0.40964
rclavicle 7.90169e-015 -3.26007e-014
rhumerus -27.3477 -7.13572 -83.6379
rradius 34.7947
rwrist 27.1127
rhand 0.28092 -6.35338
rfingers 7.12502
rthumb 25.8594 -34.6152
lclavicle 7.90169e-015 -3.26007e-014
lhumerus -46.9454 41.3284 48.9756
lradius 13.9208
lwrist -79.5055
lhand 2.84826 4.98595
lfingers 7.12502
lthumb 28.3155 32.8654
rfemur 5.99977 3.52588 26.8433
rtibia 12.6614
rfoot -10.6423 -9.9199
rtoes -13.9899
lfemur -31.6011 -10.5503 -11.3613
ltibia 20.5174
lfoot 4.89679 25.8934
ltoes -4.67702
477
root 1.64045 15.8574 -9.67238 -175.826 8.0598 181.103
lowerback -5.96043 2.68142 -1.1076
upperback 1.562 3.70881 -0.7203
thorax 4.93722 1.81785 0.249235
lowerneck -33.1414 1.29275 2.29988
upperneck 36.1738 -0.961066 0.22046
head 19.597 -0.471811 -0.704169
rclavicle 6.38596e-015 7.95139e-016
rhumerus -27.4081 -7.23025 -83.7072
rradius 34.7289
rwrist 27.1344
rhand 0.334837 -6.36208
rfingers 7.12502
rthumb 25.9111 -34.6164
lclavicle 6.38596e-015 7.95139e-016
lhumerus -47.2859 41.709 48.653
lradius 14.0396
lwrist -79.823
lhand 3.11125 4.8907
lfingers 7.12502
lthumb 28.5669 32.7281
rfemur 6.34231 3.84749 26.7576
rtibia 12.7683
rfoot -10.7626 -10.1412
rtoes -14.7234
lfemur -31.4063 -10.3423 -11.6083
ltibia 20.5821
lfoot 5.37846 25.9854
ltoes -4.98779
478
root 1.62578 15.839 -9.78384 -175.765 8.11665 181.166
lowerback -5.93402 2.70566 -1.07696
upperback 1.44124 3.73725 -0.74939
thorax 4.79991 1.8347 0.199875
lowerneck -33.1954 1.18774 2.18513
upperneck 36.2747 -1.13603 0.343978
head 19.671 -0.539856 -0.672164
rclavicle -1.08089e-014 8.74653e-015
rhumerus -27.7256 -7.42268 -83.7606
rradius 34.709
rwrist 26.9973
rhand 0.311946 -6.34497
rfingers 7.12502
rthumb 25.8891 -34.6025
lclavicle -1.08089e-014 8.74653e-015
lhumerus -47.0337 40.9888 49.2987
lradius 14.1277
lwrist -78.68
lhand 3.01577 5.03815
lfingers 7.12502
lthumb 28.4756 32.8909
rfemur 6.57385 4.17457 26.7768
rtibia 13.0477
rfoot -10.8205 -10.4096
rtoes -15.2607
lfemur -31.1508 -9.9416 -11.896
ltibia 20.702
lfoot 5.34671 25.8392
ltoes -4.90457
479
root 1.61051 15.824 -9.90671 -175.762 8.215 181.117
lowerback -6.04808 2.69983 -1.14108
upperback 1.40023 3.73706 -0.771982
thorax 4.81921 1.83299 0.216975
lowerneck -33.1204 1.01179 1.53757
upperneck 36.499 -1.31996 0.856068
head 19.7964 -0.640455 -0.363796
rclavicle -5.69518e-014 3.97569e-016
rhumerus -27.8976 -7.69273 -83.7525
rradius 34.5245
rwrist 27.1438
rhand 0.365808 -6.27851
rfingers 7.12502
rthumb 25.9407 -34.5285
lclavicle -5.69518e-014 3.97569e-016
lhumerus -46.7009 40.3996 50.0193
lradius 14.2188
lwrist -77.7818
lhand 3.34202 5.13363
lfingers 7.12502
lthumb 28.7873 32.9338
rfemur 6.92447 4.42325 26.6442
rtibia 13.3398
rfoot -10.9371 -10.5654
rtoes -15.9807
lfemur -30.7811 -9.69803 -12.2997
ltibia 20.9401
lfoot 5.57309 25.714
ltoes -4.7398
480
root 1.59299 15.8041 -10.0302 -175.725 8.26227 181.111
lowerback -6.17529 2.69236 -1.1399
upperback 1.35419 3.73048 -0.80697
thorax 4.84574 1.83015 0.184876
lowerneck -33.2401 -0.341762 2.6989
upperneck 36.4246 -0.623079 -0.0718389
head 19.7558 0.661286 -0.477413
rclavicle 4.2366e-014 4.37326e-015
rhumerus -28.2621 -7.83646 -83.7768
rradius 34.6235
rwrist 26.9723
rhand 0.515585 -6.41672
rfingers 7.12502
rthumb 26.0841 -34.6456
lclavicle 4.2366e-014 4.37326e-015
lhumerus -46.7005 40.1834 50.2459
lradius 14.3451
lwrist -77.4876
lhand 3.29286 5.01969
lfingers 7.12502
lthumb 28.7404 32.8278
rfemur 7.29926 4.61333 26.5347
rtibia 13.5454
rfoot -11.0865 -10.5967
rtoes -16.3791
lfemur -30.411 -9.43725 -12.6895
ltibia 21.2336
lfoot 5.55898 25.2888
ltoes -4.84165
481
root 1.57547 15.7856 -10.1505 -175.695 8.33495 181.187
lowerback -6.20472 2.70931 -1.06448
upperback 1.26813 3.74493 -0.796489
thorax 4.77659 1.8398 0.154098
lowerneck -33.1277 -0.265244 2.85369
upperneck 36.3275 -0.552383 -0.178587
head 19.6685 0.689108 -0.539615
rclavicle 4.82053e-015 1.98785e-015
rhumerus -28.6146 -8.14173 -83.6889
rradius 34.4765
rwrist 27.0116
rhand 0.429619 -6.16228
rfingers 7.12502
rthumb 26.0018 -34.4033
lclavicle 4.82053e-015 1.98785e-015
lhumerus -46.4831 39.5885 50.9235
lradius 14.4708
lwrist -76.9372
lhand 3.24236 4.98936
lfingers 7.12502
lthumb 28.6921 32.8056
rfemur 7.72243 4.94708 26.5596
rtibia 13.599
rfoot -10.8809 -10.7856
rtoes -17.3547
lfemur -30.099 -9.11148 -12.9941
ltibia 21.5743
lfoot 5.94269 24.43
ltoes -4.64581
482
root 1.55606 15.7829 -10.2805 -175.65 8.37709 181.123
lowerback -6.39695 2.72536 -1.11861
upperback 1.22837 3.77616 -0.837729
thorax 4.84308 1.85395 0.153822
lowerneck -33.1006 -0.314767 2.83876
upperneck 36.3798 -0.615135 -0.162868
head 19.692 0.670978 -0.543866
rclavicle -6.78353e-015 7.95139e-015
rhumerus -28.9791 -8.49364 -83.5802
rradius 34.4255
rwrist 27.1205
rhand 0.543734 -6.19249
rfingers 7.12502
rthumb 26.1111 -34.4174
lclavicle -6.78353e-015 7.95139e-015
lhumerus -45.7962 38.5565 52.1542
lradius 14.5622
lwrist -75.5688
lhand 3.14022 5.03397
lfingers 7.12502
lthumb 28.5945 32.8667
rfemur 8.22584 5.14296 26.3799
rtibia 13.4886
rfoot -10.7324 -10.7708
rtoes -18.4152
lfemur -29.9225 -9.11177 -13.3433
ltibia 21.9296
lfoot 6.61063 23.425
ltoes -4.18757
483
root 1.53771 15.7841 -10.4072 -175.639 8.44047 181.143
lowerback -6.51352 2.69418 -1.15393
upperback 1.2045 3.73568 -0.783257
thorax 4.87844 1.83132 0.230884
lowerneck -33.4393 -0.252222 2.74192
upperneck 36.7339 -0.475852 -0.0731484
head 19.9995 0.742959 -0.441366
rclavicle -3.27001e-014 8.74653e-015
rhumerus -29.3404 -8.41287 -83.4993
rradius 34.4632
rwrist 26.842
rhand 0.579488 -6.25132
rfingers 7.12502
rthumb 26.1453 -34.4711
lclavicle -3.27001e-014 8.74653e-015
lhumerus -45.6451 38.1882 52.8854
lradius 14.8355
lwrist -74.7657
lhand 3.16578 4.94105
lfingers 7.12502
lthumb 28.619 32.7697
rfemur 8.86772 5.41942 26.3308
rtibia 13.1857
rfoot -10.3142 -10.8084
rtoes -18.5353
lfemur -29.8355 -9.09542 -13.5768
ltibia 22.3228
lfoot 7.82941 22.0618
ltoes -3.62783
